# xmcd CD database file
#
# Track frame offsets:
#	150
#	13019
#	26300
#	41786
#	55344
#	68971
#	82517
#	93581
#	106318
#	118869
#	137485
#	151164
#	166134
#	177394
#	190816
#	203687
#	214890
#	229697
#	243563
#	256355
#
# Disc length: 3618 seconds
#
# Revision: 0
# Processed by: cddbd v1.5.2PL0 Copyright (c) Steve Scherf et al.
# Submitted via: CDex 1.51
#
DISCID=090e2014
DTITLE=Various Artist - The Song Before The Song
DYEAR=2006
DGENRE=Blues
TTITLE0=Thornton~Big Mama - Hound Dog
TTITLE1=Singer~Hal - Rock Around The Clock
TTITLE2=Thomas~Henry - Bull Doze Blues
TTITLE3=White~Josh - House Of The Rising Sun
TTITLE4=Cole~Nat King - Route 66
TTITLE5=Leadbelly - Gallis Pole
TTITLE6=Lewis~Smiley - One Night
TTITLE7=Bently Boys - Down On Penny's Farm
TTITLE8=Gaillard~Slim - Tutti Frutti
TTITLE9=Bechet~Sidney - Summertime
TTITLE10=Jackson~Bessie - T and N O Blues
TTITLE11=Williams~Big Joe - Baby Please Don't Go
TTITLE12=Crudup~Arthur - My Baby Left Me
TTITLE13=Blind Blake - Diddie Wah Diddie
TTITLE14=Miller~Emmett - Lovesick Blues
TTITLE15=Snow~Hank - A Fool Such As I
TTITLE16=Coleman~Lonnie - Old Rock Island Blues
TTITLE17=Monroe~Bill - Blue Moon Of Kentucky
TTITLE18=Kelly~Jack - Highway No.61 Blues
TTITLE19=Arthur~Emry - I'm A Man Of Constant Sorrow
EXTD=YEAR: 2006
EXTT0=
EXTT1=
EXTT2=
EXTT3=
EXTT4=
EXTT5=
EXTT6=
EXTT7=
EXTT8=
EXTT9=
EXTT10=
EXTT11=
EXTT12=
EXTT13=
EXTT14=
EXTT15=
EXTT16=
EXTT17=
EXTT18=
EXTT19=
PLAYORDER=
